<?xml version="1.0" encoding="utf-8" standalone="no"?>
<!DOCTYPE svg PUBLIC "-//W3C//DTD SVG 1.1//EN"
  "http://www.w3.org/Graphics/SVG/1.1/DTD/svg11.dtd">
<svg xmlns:xlink="http://www.w3.org/1999/xlink" width="720pt" height="432pt" viewBox="0 0 720 432" xmlns="http://www.w3.org/2000/svg" version="1.1">
 <metadata>
  <rdf:RDF xmlns:dc="http://purl.org/dc/elements/1.1/" xmlns:cc="http://creativecommons.org/ns#" xmlns:rdf="http://www.w3.org/1999/02/22-rdf-syntax-ns#">
   <cc:Work>
    <dc:type rdf:resource="http://purl.org/dc/dcmitype/StillImage"/>
    <dc:date>2024-07-07T18:04:49.620595</dc:date>
    <dc:format>image/svg+xml</dc:format>
    <dc:creator>
     <cc:Agent>
      <dc:title>Matplotlib v3.9.1, https://matplotlib.org/</dc:title>
     </cc:Agent>
    </dc:creator>
   </cc:Work>
  </rdf:RDF>
 </metadata>
 <defs>
  <style type="text/css">*{stroke-linejoin: round; stroke-linecap: butt}</style>
 </defs>
 <g id="figure_1">
  <g id="patch_1">
   <path d="M 0 432 
L 720 432 
L 720 0 
L 0 0 
z
" style="fill: #ffffff"/>
  </g>
  <g id="axes_1">
   <g id="patch_2">
    <path d="M 90 384.48 
L 648 384.48 
L 648 51.84 
L 90 51.84 
z
" style="fill: #ffffff"/>
   </g>
   <g id="matplotlib.axis_1">
    <g id="xtick_1">
     <g id="line2d_1">
      <path d="M 122.409091 384.48 
L 122.409091 51.84 
" clip-path="url(#pb1fa998a87)" style="fill: none; stroke: #b0b0b0; stroke-width: 0.8; stroke-linecap: square"/>
     </g>
     <g id="line2d_2">
      <defs>
       <path id="ma40247470e" d="M 0 0 
L 0 3.5 
" style="stroke: #000000; stroke-width: 0.8"/>
      </defs>
      <g>
       <use xlink:href="#ma40247470e" x="122.409091" y="384.48" style="stroke: #000000; stroke-width: 0.8"/>
      </g>
     </g>
     <g id="text_1">
      <!-- 1950 -->
      <g transform="translate(109.684091 399.078438) scale(0.1 -0.1)">
       <defs>
        <path id="DejaVuSans-31" d="M 794 531 
L 1825 531 
L 1825 4091 
L 703 3866 
L 703 4441 
L 1819 4666 
L 2450 4666 
L 2450 531 
L 3481 531 
L 3481 0 
L 794 0 
L 794 531 
z
" transform="scale(0.015625)"/>
        <path id="DejaVuSans-39" d="M 703 97 
L 703 672 
Q 941 559 1184 500 
Q 1428 441 1663 441 
Q 2288 441 2617 861 
Q 2947 1281 2994 2138 
Q 2813 1869 2534 1725 
Q 2256 1581 1919 1581 
Q 1219 1581 811 2004 
Q 403 2428 403 3163 
Q 403 3881 828 4315 
Q 1253 4750 1959 4750 
Q 2769 4750 3195 4129 
Q 3622 3509 3622 2328 
Q 3622 1225 3098 567 
Q 2575 -91 1691 -91 
Q 1453 -91 1209 -44 
Q 966 3 703 97 
z
M 1959 2075 
Q 2384 2075 2632 2365 
Q 2881 2656 2881 3163 
Q 2881 3666 2632 3958 
Q 2384 4250 1959 4250 
Q 1534 4250 1286 3958 
Q 1038 3666 1038 3163 
Q 1038 2656 1286 2365 
Q 1534 2075 1959 2075 
z
" transform="scale(0.015625)"/>
        <path id="DejaVuSans-35" d="M 691 4666 
L 3169 4666 
L 3169 4134 
L 1269 4134 
L 1269 2991 
Q 1406 3038 1543 3061 
Q 1681 3084 1819 3084 
Q 2600 3084 3056 2656 
Q 3513 2228 3513 1497 
Q 3513 744 3044 326 
Q 2575 -91 1722 -91 
Q 1428 -91 1123 -41 
Q 819 9 494 109 
L 494 744 
Q 775 591 1075 516 
Q 1375 441 1709 441 
Q 2250 441 2565 725 
Q 2881 1009 2881 1497 
Q 2881 1984 2565 2268 
Q 2250 2553 1709 2553 
Q 1456 2553 1204 2497 
Q 953 2441 691 2322 
L 691 4666 
z
" transform="scale(0.015625)"/>
        <path id="DejaVuSans-30" d="M 2034 4250 
Q 1547 4250 1301 3770 
Q 1056 3291 1056 2328 
Q 1056 1369 1301 889 
Q 1547 409 2034 409 
Q 2525 409 2770 889 
Q 3016 1369 3016 2328 
Q 3016 3291 2770 3770 
Q 2525 4250 2034 4250 
z
M 2034 4750 
Q 2819 4750 3233 4129 
Q 3647 3509 3647 2328 
Q 3647 1150 3233 529 
Q 2819 -91 2034 -91 
Q 1250 -91 836 529 
Q 422 1150 422 2328 
Q 422 3509 836 4129 
Q 1250 4750 2034 4750 
z
" transform="scale(0.015625)"/>
       </defs>
       <use xlink:href="#DejaVuSans-31"/>
       <use xlink:href="#DejaVuSans-39" x="63.623047"/>
       <use xlink:href="#DejaVuSans-35" x="127.246094"/>
       <use xlink:href="#DejaVuSans-30" x="190.869141"/>
      </g>
     </g>
    </g>
    <g id="xtick_2">
     <g id="line2d_3">
      <path d="M 192.863636 384.48 
L 192.863636 51.84 
" clip-path="url(#pb1fa998a87)" style="fill: none; stroke: #b0b0b0; stroke-width: 0.8; stroke-linecap: square"/>
     </g>
     <g id="line2d_4">
      <g>
       <use xlink:href="#ma40247470e" x="192.863636" y="384.48" style="stroke: #000000; stroke-width: 0.8"/>
      </g>
     </g>
     <g id="text_2">
      <!-- 1960 -->
      <g transform="translate(180.138636 399.078438) scale(0.1 -0.1)">
       <defs>
        <path id="DejaVuSans-36" d="M 2113 2584 
Q 1688 2584 1439 2293 
Q 1191 2003 1191 1497 
Q 1191 994 1439 701 
Q 1688 409 2113 409 
Q 2538 409 2786 701 
Q 3034 994 3034 1497 
Q 3034 2003 2786 2293 
Q 2538 2584 2113 2584 
z
M 3366 4563 
L 3366 3988 
Q 3128 4100 2886 4159 
Q 2644 4219 2406 4219 
Q 1781 4219 1451 3797 
Q 1122 3375 1075 2522 
Q 1259 2794 1537 2939 
Q 1816 3084 2150 3084 
Q 2853 3084 3261 2657 
Q 3669 2231 3669 1497 
Q 3669 778 3244 343 
Q 2819 -91 2113 -91 
Q 1303 -91 875 529 
Q 447 1150 447 2328 
Q 447 3434 972 4092 
Q 1497 4750 2381 4750 
Q 2619 4750 2861 4703 
Q 3103 4656 3366 4563 
z
" transform="scale(0.015625)"/>
       </defs>
       <use xlink:href="#DejaVuSans-31"/>
       <use xlink:href="#DejaVuSans-39" x="63.623047"/>
       <use xlink:href="#DejaVuSans-36" x="127.246094"/>
       <use xlink:href="#DejaVuSans-30" x="190.869141"/>
      </g>
     </g>
    </g>
    <g id="xtick_3">
     <g id="line2d_5">
      <path d="M 263.318182 384.48 
L 263.318182 51.84 
" clip-path="url(#pb1fa998a87)" style="fill: none; stroke: #b0b0b0; stroke-width: 0.8; stroke-linecap: square"/>
     </g>
     <g id="line2d_6">
      <g>
       <use xlink:href="#ma40247470e" x="263.318182" y="384.48" style="stroke: #000000; stroke-width: 0.8"/>
      </g>
     </g>
     <g id="text_3">
      <!-- 1970 -->
      <g transform="translate(250.593182 399.078438) scale(0.1 -0.1)">
       <defs>
        <path id="DejaVuSans-37" d="M 525 4666 
L 3525 4666 
L 3525 4397 
L 1831 0 
L 1172 0 
L 2766 4134 
L 525 4134 
L 525 4666 
z
" transform="scale(0.015625)"/>
       </defs>
       <use xlink:href="#DejaVuSans-31"/>
       <use xlink:href="#DejaVuSans-39" x="63.623047"/>
       <use xlink:href="#DejaVuSans-37" x="127.246094"/>
       <use xlink:href="#DejaVuSans-30" x="190.869141"/>
      </g>
     </g>
    </g>
    <g id="xtick_4">
     <g id="line2d_7">
      <path d="M 333.772727 384.48 
L 333.772727 51.84 
" clip-path="url(#pb1fa998a87)" style="fill: none; stroke: #b0b0b0; stroke-width: 0.8; stroke-linecap: square"/>
     </g>
     <g id="line2d_8">
      <g>
       <use xlink:href="#ma40247470e" x="333.772727" y="384.48" style="stroke: #000000; stroke-width: 0.8"/>
      </g>
     </g>
     <g id="text_4">
      <!-- 1980 -->
      <g transform="translate(321.047727 399.078438) scale(0.1 -0.1)">
       <defs>
        <path id="DejaVuSans-38" d="M 2034 2216 
Q 1584 2216 1326 1975 
Q 1069 1734 1069 1313 
Q 1069 891 1326 650 
Q 1584 409 2034 409 
Q 2484 409 2743 651 
Q 3003 894 3003 1313 
Q 3003 1734 2745 1975 
Q 2488 2216 2034 2216 
z
M 1403 2484 
Q 997 2584 770 2862 
Q 544 3141 544 3541 
Q 544 4100 942 4425 
Q 1341 4750 2034 4750 
Q 2731 4750 3128 4425 
Q 3525 4100 3525 3541 
Q 3525 3141 3298 2862 
Q 3072 2584 2669 2484 
Q 3125 2378 3379 2068 
Q 3634 1759 3634 1313 
Q 3634 634 3220 271 
Q 2806 -91 2034 -91 
Q 1263 -91 848 271 
Q 434 634 434 1313 
Q 434 1759 690 2068 
Q 947 2378 1403 2484 
z
M 1172 3481 
Q 1172 3119 1398 2916 
Q 1625 2713 2034 2713 
Q 2441 2713 2670 2916 
Q 2900 3119 2900 3481 
Q 2900 3844 2670 4047 
Q 2441 4250 2034 4250 
Q 1625 4250 1398 4047 
Q 1172 3844 1172 3481 
z
" transform="scale(0.015625)"/>
       </defs>
       <use xlink:href="#DejaVuSans-31"/>
       <use xlink:href="#DejaVuSans-39" x="63.623047"/>
       <use xlink:href="#DejaVuSans-38" x="127.246094"/>
       <use xlink:href="#DejaVuSans-30" x="190.869141"/>
      </g>
     </g>
    </g>
    <g id="xtick_5">
     <g id="line2d_9">
      <path d="M 404.227273 384.48 
L 404.227273 51.84 
" clip-path="url(#pb1fa998a87)" style="fill: none; stroke: #b0b0b0; stroke-width: 0.8; stroke-linecap: square"/>
     </g>
     <g id="line2d_10">
      <g>
       <use xlink:href="#ma40247470e" x="404.227273" y="384.48" style="stroke: #000000; stroke-width: 0.8"/>
      </g>
     </g>
     <g id="text_5">
      <!-- 1990 -->
      <g transform="translate(391.502273 399.078438) scale(0.1 -0.1)">
       <use xlink:href="#DejaVuSans-31"/>
       <use xlink:href="#DejaVuSans-39" x="63.623047"/>
       <use xlink:href="#DejaVuSans-39" x="127.246094"/>
       <use xlink:href="#DejaVuSans-30" x="190.869141"/>
      </g>
     </g>
    </g>
    <g id="xtick_6">
     <g id="line2d_11">
      <path d="M 474.681818 384.48 
L 474.681818 51.84 
" clip-path="url(#pb1fa998a87)" style="fill: none; stroke: #b0b0b0; stroke-width: 0.8; stroke-linecap: square"/>
     </g>
     <g id="line2d_12">
      <g>
       <use xlink:href="#ma40247470e" x="474.681818" y="384.48" style="stroke: #000000; stroke-width: 0.8"/>
      </g>
     </g>
     <g id="text_6">
      <!-- 2000 -->
      <g transform="translate(461.956818 399.078438) scale(0.1 -0.1)">
       <defs>
        <path id="DejaVuSans-32" d="M 1228 531 
L 3431 531 
L 3431 0 
L 469 0 
L 469 531 
Q 828 903 1448 1529 
Q 2069 2156 2228 2338 
Q 2531 2678 2651 2914 
Q 2772 3150 2772 3378 
Q 2772 3750 2511 3984 
Q 2250 4219 1831 4219 
Q 1534 4219 1204 4116 
Q 875 4013 500 3803 
L 500 4441 
Q 881 4594 1212 4672 
Q 1544 4750 1819 4750 
Q 2544 4750 2975 4387 
Q 3406 4025 3406 3419 
Q 3406 3131 3298 2873 
Q 3191 2616 2906 2266 
Q 2828 2175 2409 1742 
Q 1991 1309 1228 531 
z
" transform="scale(0.015625)"/>
       </defs>
       <use xlink:href="#DejaVuSans-32"/>
       <use xlink:href="#DejaVuSans-30" x="63.623047"/>
       <use xlink:href="#DejaVuSans-30" x="127.246094"/>
       <use xlink:href="#DejaVuSans-30" x="190.869141"/>
      </g>
     </g>
    </g>
    <g id="xtick_7">
     <g id="line2d_13">
      <path d="M 545.136364 384.48 
L 545.136364 51.84 
" clip-path="url(#pb1fa998a87)" style="fill: none; stroke: #b0b0b0; stroke-width: 0.8; stroke-linecap: square"/>
     </g>
     <g id="line2d_14">
      <g>
       <use xlink:href="#ma40247470e" x="545.136364" y="384.48" style="stroke: #000000; stroke-width: 0.8"/>
      </g>
     </g>
     <g id="text_7">
      <!-- 2010 -->
      <g transform="translate(532.411364 399.078438) scale(0.1 -0.1)">
       <use xlink:href="#DejaVuSans-32"/>
       <use xlink:href="#DejaVuSans-30" x="63.623047"/>
       <use xlink:href="#DejaVuSans-31" x="127.246094"/>
       <use xlink:href="#DejaVuSans-30" x="190.869141"/>
      </g>
     </g>
    </g>
    <g id="xtick_8">
     <g id="line2d_15">
      <path d="M 615.590909 384.48 
L 615.590909 51.84 
" clip-path="url(#pb1fa998a87)" style="fill: none; stroke: #b0b0b0; stroke-width: 0.8; stroke-linecap: square"/>
     </g>
     <g id="line2d_16">
      <g>
       <use xlink:href="#ma40247470e" x="615.590909" y="384.48" style="stroke: #000000; stroke-width: 0.8"/>
      </g>
     </g>
     <g id="text_8">
      <!-- 2020 -->
      <g transform="translate(602.865909 399.078438) scale(0.1 -0.1)">
       <use xlink:href="#DejaVuSans-32"/>
       <use xlink:href="#DejaVuSans-30" x="63.623047"/>
       <use xlink:href="#DejaVuSans-32" x="127.246094"/>
       <use xlink:href="#DejaVuSans-30" x="190.869141"/>
      </g>
     </g>
    </g>
    <g id="text_9">
     <!-- Year -->
     <g transform="translate(358.4125 412.756563) scale(0.1 -0.1)">
      <defs>
       <path id="DejaVuSans-59" d="M -13 4666 
L 666 4666 
L 1959 2747 
L 3244 4666 
L 3922 4666 
L 2272 2222 
L 2272 0 
L 1638 0 
L 1638 2222 
L -13 4666 
z
" transform="scale(0.015625)"/>
       <path id="DejaVuSans-65" d="M 3597 1894 
L 3597 1613 
L 953 1613 
Q 991 1019 1311 708 
Q 1631 397 2203 397 
Q 2534 397 2845 478 
Q 3156 559 3463 722 
L 3463 178 
Q 3153 47 2828 -22 
Q 2503 -91 2169 -91 
Q 1331 -91 842 396 
Q 353 884 353 1716 
Q 353 2575 817 3079 
Q 1281 3584 2069 3584 
Q 2775 3584 3186 3129 
Q 3597 2675 3597 1894 
z
M 3022 2063 
Q 3016 2534 2758 2815 
Q 2500 3097 2075 3097 
Q 1594 3097 1305 2825 
Q 1016 2553 972 2059 
L 3022 2063 
z
" transform="scale(0.015625)"/>
       <path id="DejaVuSans-61" d="M 2194 1759 
Q 1497 1759 1228 1600 
Q 959 1441 959 1056 
Q 959 750 1161 570 
Q 1363 391 1709 391 
Q 2188 391 2477 730 
Q 2766 1069 2766 1631 
L 2766 1759 
L 2194 1759 
z
M 3341 1997 
L 3341 0 
L 2766 0 
L 2766 531 
Q 2569 213 2275 61 
Q 1981 -91 1556 -91 
Q 1019 -91 701 211 
Q 384 513 384 1019 
Q 384 1609 779 1909 
Q 1175 2209 1959 2209 
L 2766 2209 
L 2766 2266 
Q 2766 2663 2505 2880 
Q 2244 3097 1772 3097 
Q 1472 3097 1187 3025 
Q 903 2953 641 2809 
L 641 3341 
Q 956 3463 1253 3523 
Q 1550 3584 1831 3584 
Q 2591 3584 2966 3190 
Q 3341 2797 3341 1997 
z
" transform="scale(0.015625)"/>
       <path id="DejaVuSans-72" d="M 2631 2963 
Q 2534 3019 2420 3045 
Q 2306 3072 2169 3072 
Q 1681 3072 1420 2755 
Q 1159 2438 1159 1844 
L 1159 0 
L 581 0 
L 581 3500 
L 1159 3500 
L 1159 2956 
Q 1341 3275 1631 3429 
Q 1922 3584 2338 3584 
Q 2397 3584 2469 3576 
Q 2541 3569 2628 3553 
L 2631 2963 
z
" transform="scale(0.015625)"/>
      </defs>
      <use xlink:href="#DejaVuSans-59"/>
      <use xlink:href="#DejaVuSans-65" x="47.833984"/>
      <use xlink:href="#DejaVuSans-61" x="109.357422"/>
      <use xlink:href="#DejaVuSans-72" x="170.636719"/>
     </g>
    </g>
   </g>
   <g id="matplotlib.axis_2">
    <g id="ytick_1">
     <g id="line2d_17">
      <path d="M 90 382.025805 
L 648 382.025805 
" clip-path="url(#pb1fa998a87)" style="fill: none; stroke: #b0b0b0; stroke-width: 0.8; stroke-linecap: square"/>
     </g>
     <g id="line2d_18">
      <defs>
       <path id="m7ee23a69df" d="M 0 0 
L -3.5 0 
" style="stroke: #000000; stroke-width: 0.8"/>
      </defs>
      <g>
       <use xlink:href="#m7ee23a69df" x="90" y="382.025805" style="stroke: #000000; stroke-width: 0.8"/>
      </g>
     </g>
     <g id="text_10">
      <!-- −0.6 -->
      <g transform="translate(58.717187 385.825024) scale(0.1 -0.1)">
       <defs>
        <path id="DejaVuSans-2212" d="M 678 2272 
L 4684 2272 
L 4684 1741 
L 678 1741 
L 678 2272 
z
" transform="scale(0.015625)"/>
        <path id="DejaVuSans-2e" d="M 684 794 
L 1344 794 
L 1344 0 
L 684 0 
L 684 794 
z
" transform="scale(0.015625)"/>
       </defs>
       <use xlink:href="#DejaVuSans-2212"/>
       <use xlink:href="#DejaVuSans-30" x="83.789062"/>
       <use xlink:href="#DejaVuSans-2e" x="147.412109"/>
       <use xlink:href="#DejaVuSans-36" x="179.199219"/>
      </g>
     </g>
    </g>
    <g id="ytick_2">
     <g id="line2d_19">
      <path d="M 90 327.497628 
L 648 327.497628 
" clip-path="url(#pb1fa998a87)" style="fill: none; stroke: #b0b0b0; stroke-width: 0.8; stroke-linecap: square"/>
     </g>
     <g id="line2d_20">
      <g>
       <use xlink:href="#m7ee23a69df" x="90" y="327.497628" style="stroke: #000000; stroke-width: 0.8"/>
      </g>
     </g>
     <g id="text_11">
      <!-- −0.5 -->
      <g transform="translate(58.717187 331.296847) scale(0.1 -0.1)">
       <use xlink:href="#DejaVuSans-2212"/>
       <use xlink:href="#DejaVuSans-30" x="83.789062"/>
       <use xlink:href="#DejaVuSans-2e" x="147.412109"/>
       <use xlink:href="#DejaVuSans-35" x="179.199219"/>
      </g>
     </g>
    </g>
    <g id="ytick_3">
     <g id="line2d_21">
      <path d="M 90 272.969451 
L 648 272.969451 
" clip-path="url(#pb1fa998a87)" style="fill: none; stroke: #b0b0b0; stroke-width: 0.8; stroke-linecap: square"/>
     </g>
     <g id="line2d_22">
      <g>
       <use xlink:href="#m7ee23a69df" x="90" y="272.969451" style="stroke: #000000; stroke-width: 0.8"/>
      </g>
     </g>
     <g id="text_12">
      <!-- −0.4 -->
      <g transform="translate(58.717187 276.76867) scale(0.1 -0.1)">
       <defs>
        <path id="DejaVuSans-34" d="M 2419 4116 
L 825 1625 
L 2419 1625 
L 2419 4116 
z
M 2253 4666 
L 3047 4666 
L 3047 1625 
L 3713 1625 
L 3713 1100 
L 3047 1100 
L 3047 0 
L 2419 0 
L 2419 1100 
L 313 1100 
L 313 1709 
L 2253 4666 
z
" transform="scale(0.015625)"/>
       </defs>
       <use xlink:href="#DejaVuSans-2212"/>
       <use xlink:href="#DejaVuSans-30" x="83.789062"/>
       <use xlink:href="#DejaVuSans-2e" x="147.412109"/>
       <use xlink:href="#DejaVuSans-34" x="179.199219"/>
      </g>
     </g>
    </g>
    <g id="ytick_4">
     <g id="line2d_23">
      <path d="M 90 218.441274 
L 648 218.441274 
" clip-path="url(#pb1fa998a87)" style="fill: none; stroke: #b0b0b0; stroke-width: 0.8; stroke-linecap: square"/>
     </g>
     <g id="line2d_24">
      <g>
       <use xlink:href="#m7ee23a69df" x="90" y="218.441274" style="stroke: #000000; stroke-width: 0.8"/>
      </g>
     </g>
     <g id="text_13">
      <!-- −0.3 -->
      <g transform="translate(58.717187 222.240493) scale(0.1 -0.1)">
       <defs>
        <path id="DejaVuSans-33" d="M 2597 2516 
Q 3050 2419 3304 2112 
Q 3559 1806 3559 1356 
Q 3559 666 3084 287 
Q 2609 -91 1734 -91 
Q 1441 -91 1130 -33 
Q 819 25 488 141 
L 488 750 
Q 750 597 1062 519 
Q 1375 441 1716 441 
Q 2309 441 2620 675 
Q 2931 909 2931 1356 
Q 2931 1769 2642 2001 
Q 2353 2234 1838 2234 
L 1294 2234 
L 1294 2753 
L 1863 2753 
Q 2328 2753 2575 2939 
Q 2822 3125 2822 3475 
Q 2822 3834 2567 4026 
Q 2313 4219 1838 4219 
Q 1578 4219 1281 4162 
Q 984 4106 628 3988 
L 628 4550 
Q 988 4650 1302 4700 
Q 1616 4750 1894 4750 
Q 2613 4750 3031 4423 
Q 3450 4097 3450 3541 
Q 3450 3153 3228 2886 
Q 3006 2619 2597 2516 
z
" transform="scale(0.015625)"/>
       </defs>
       <use xlink:href="#DejaVuSans-2212"/>
       <use xlink:href="#DejaVuSans-30" x="83.789062"/>
       <use xlink:href="#DejaVuSans-2e" x="147.412109"/>
       <use xlink:href="#DejaVuSans-33" x="179.199219"/>
      </g>
     </g>
    </g>
    <g id="ytick_5">
     <g id="line2d_25">
      <path d="M 90 163.913097 
L 648 163.913097 
" clip-path="url(#pb1fa998a87)" style="fill: none; stroke: #b0b0b0; stroke-width: 0.8; stroke-linecap: square"/>
     </g>
     <g id="line2d_26">
      <g>
       <use xlink:href="#m7ee23a69df" x="90" y="163.913097" style="stroke: #000000; stroke-width: 0.8"/>
      </g>
     </g>
     <g id="text_14">
      <!-- −0.2 -->
      <g transform="translate(58.717187 167.712316) scale(0.1 -0.1)">
       <use xlink:href="#DejaVuSans-2212"/>
       <use xlink:href="#DejaVuSans-30" x="83.789062"/>
       <use xlink:href="#DejaVuSans-2e" x="147.412109"/>
       <use xlink:href="#DejaVuSans-32" x="179.199219"/>
      </g>
     </g>
    </g>
    <g id="ytick_6">
     <g id="line2d_27">
      <path d="M 90 109.384921 
L 648 109.384921 
" clip-path="url(#pb1fa998a87)" style="fill: none; stroke: #b0b0b0; stroke-width: 0.8; stroke-linecap: square"/>
     </g>
     <g id="line2d_28">
      <g>
       <use xlink:href="#m7ee23a69df" x="90" y="109.384921" style="stroke: #000000; stroke-width: 0.8"/>
      </g>
     </g>
     <g id="text_15">
      <!-- −0.1 -->
      <g transform="translate(58.717187 113.184139) scale(0.1 -0.1)">
       <use xlink:href="#DejaVuSans-2212"/>
       <use xlink:href="#DejaVuSans-30" x="83.789062"/>
       <use xlink:href="#DejaVuSans-2e" x="147.412109"/>
       <use xlink:href="#DejaVuSans-31" x="179.199219"/>
      </g>
     </g>
    </g>
    <g id="ytick_7">
     <g id="line2d_29">
      <path d="M 90 54.856744 
L 648 54.856744 
" clip-path="url(#pb1fa998a87)" style="fill: none; stroke: #b0b0b0; stroke-width: 0.8; stroke-linecap: square"/>
     </g>
     <g id="line2d_30">
      <g>
       <use xlink:href="#m7ee23a69df" x="90" y="54.856744" style="stroke: #000000; stroke-width: 0.8"/>
      </g>
     </g>
     <g id="text_16">
      <!-- 0.0 -->
      <g transform="translate(67.096875 58.655962) scale(0.1 -0.1)">
       <use xlink:href="#DejaVuSans-30"/>
       <use xlink:href="#DejaVuSans-2e" x="63.623047"/>
       <use xlink:href="#DejaVuSans-30" x="95.410156"/>
      </g>
     </g>
    </g>
    <g id="text_17">
     <!-- Average Sentiment -->
     <g transform="translate(52.6375 266.126406) rotate(-90) scale(0.1 -0.1)">
      <defs>
       <path id="DejaVuSans-41" d="M 2188 4044 
L 1331 1722 
L 3047 1722 
L 2188 4044 
z
M 1831 4666 
L 2547 4666 
L 4325 0 
L 3669 0 
L 3244 1197 
L 1141 1197 
L 716 0 
L 50 0 
L 1831 4666 
z
" transform="scale(0.015625)"/>
       <path id="DejaVuSans-76" d="M 191 3500 
L 800 3500 
L 1894 563 
L 2988 3500 
L 3597 3500 
L 2284 0 
L 1503 0 
L 191 3500 
z
" transform="scale(0.015625)"/>
       <path id="DejaVuSans-67" d="M 2906 1791 
Q 2906 2416 2648 2759 
Q 2391 3103 1925 3103 
Q 1463 3103 1205 2759 
Q 947 2416 947 1791 
Q 947 1169 1205 825 
Q 1463 481 1925 481 
Q 2391 481 2648 825 
Q 2906 1169 2906 1791 
z
M 3481 434 
Q 3481 -459 3084 -895 
Q 2688 -1331 1869 -1331 
Q 1566 -1331 1297 -1286 
Q 1028 -1241 775 -1147 
L 775 -588 
Q 1028 -725 1275 -790 
Q 1522 -856 1778 -856 
Q 2344 -856 2625 -561 
Q 2906 -266 2906 331 
L 2906 616 
Q 2728 306 2450 153 
Q 2172 0 1784 0 
Q 1141 0 747 490 
Q 353 981 353 1791 
Q 353 2603 747 3093 
Q 1141 3584 1784 3584 
Q 2172 3584 2450 3431 
Q 2728 3278 2906 2969 
L 2906 3500 
L 3481 3500 
L 3481 434 
z
" transform="scale(0.015625)"/>
       <path id="DejaVuSans-20" transform="scale(0.015625)"/>
       <path id="DejaVuSans-53" d="M 3425 4513 
L 3425 3897 
Q 3066 4069 2747 4153 
Q 2428 4238 2131 4238 
Q 1616 4238 1336 4038 
Q 1056 3838 1056 3469 
Q 1056 3159 1242 3001 
Q 1428 2844 1947 2747 
L 2328 2669 
Q 3034 2534 3370 2195 
Q 3706 1856 3706 1288 
Q 3706 609 3251 259 
Q 2797 -91 1919 -91 
Q 1588 -91 1214 -16 
Q 841 59 441 206 
L 441 856 
Q 825 641 1194 531 
Q 1563 422 1919 422 
Q 2459 422 2753 634 
Q 3047 847 3047 1241 
Q 3047 1584 2836 1778 
Q 2625 1972 2144 2069 
L 1759 2144 
Q 1053 2284 737 2584 
Q 422 2884 422 3419 
Q 422 4038 858 4394 
Q 1294 4750 2059 4750 
Q 2388 4750 2728 4690 
Q 3069 4631 3425 4513 
z
" transform="scale(0.015625)"/>
       <path id="DejaVuSans-6e" d="M 3513 2113 
L 3513 0 
L 2938 0 
L 2938 2094 
Q 2938 2591 2744 2837 
Q 2550 3084 2163 3084 
Q 1697 3084 1428 2787 
Q 1159 2491 1159 1978 
L 1159 0 
L 581 0 
L 581 3500 
L 1159 3500 
L 1159 2956 
Q 1366 3272 1645 3428 
Q 1925 3584 2291 3584 
Q 2894 3584 3203 3211 
Q 3513 2838 3513 2113 
z
" transform="scale(0.015625)"/>
       <path id="DejaVuSans-74" d="M 1172 4494 
L 1172 3500 
L 2356 3500 
L 2356 3053 
L 1172 3053 
L 1172 1153 
Q 1172 725 1289 603 
Q 1406 481 1766 481 
L 2356 481 
L 2356 0 
L 1766 0 
Q 1100 0 847 248 
Q 594 497 594 1153 
L 594 3053 
L 172 3053 
L 172 3500 
L 594 3500 
L 594 4494 
L 1172 4494 
z
" transform="scale(0.015625)"/>
       <path id="DejaVuSans-69" d="M 603 3500 
L 1178 3500 
L 1178 0 
L 603 0 
L 603 3500 
z
M 603 4863 
L 1178 4863 
L 1178 4134 
L 603 4134 
L 603 4863 
z
" transform="scale(0.015625)"/>
       <path id="DejaVuSans-6d" d="M 3328 2828 
Q 3544 3216 3844 3400 
Q 4144 3584 4550 3584 
Q 5097 3584 5394 3201 
Q 5691 2819 5691 2113 
L 5691 0 
L 5113 0 
L 5113 2094 
Q 5113 2597 4934 2840 
Q 4756 3084 4391 3084 
Q 3944 3084 3684 2787 
Q 3425 2491 3425 1978 
L 3425 0 
L 2847 0 
L 2847 2094 
Q 2847 2600 2669 2842 
Q 2491 3084 2119 3084 
Q 1678 3084 1418 2786 
Q 1159 2488 1159 1978 
L 1159 0 
L 581 0 
L 581 3500 
L 1159 3500 
L 1159 2956 
Q 1356 3278 1631 3431 
Q 1906 3584 2284 3584 
Q 2666 3584 2933 3390 
Q 3200 3197 3328 2828 
z
" transform="scale(0.015625)"/>
      </defs>
      <use xlink:href="#DejaVuSans-41"/>
      <use xlink:href="#DejaVuSans-76" x="62.533203"/>
      <use xlink:href="#DejaVuSans-65" x="121.712891"/>
      <use xlink:href="#DejaVuSans-72" x="183.236328"/>
      <use xlink:href="#DejaVuSans-61" x="224.349609"/>
      <use xlink:href="#DejaVuSans-67" x="285.628906"/>
      <use xlink:href="#DejaVuSans-65" x="349.105469"/>
      <use xlink:href="#DejaVuSans-20" x="410.628906"/>
      <use xlink:href="#DejaVuSans-53" x="442.416016"/>
      <use xlink:href="#DejaVuSans-65" x="505.892578"/>
      <use xlink:href="#DejaVuSans-6e" x="567.416016"/>
      <use xlink:href="#DejaVuSans-74" x="630.794922"/>
      <use xlink:href="#DejaVuSans-69" x="670.003906"/>
      <use xlink:href="#DejaVuSans-6d" x="697.787109"/>
      <use xlink:href="#DejaVuSans-65" x="795.199219"/>
      <use xlink:href="#DejaVuSans-6e" x="856.722656"/>
      <use xlink:href="#DejaVuSans-74" x="920.101562"/>
     </g>
    </g>
   </g>
   <g id="line2d_31">
    <path d="M 115.363636 369.36 
L 122.409091 168.887113 
L 129.454545 227.063325 
L 136.5 226.499578 
L 143.545455 239.30597 
L 150.590909 75.056138 
L 157.636364 168.375876 
L 164.681818 201.977017 
L 171.727273 187.885453 
L 178.772727 200.87005 
L 185.818182 159.012149 
L 192.863636 139.177513 
L 199.909091 115.241836 
L 206.954545 124.187841 
L 214 125.166829 
L 221.045455 147.517406 
L 228.090909 140.665465 
L 235.136364 79.156879 
L 242.181818 108.808137 
L 249.227273 131.085673 
L 256.272727 108.271923 
L 263.318182 90.774142 
L 270.363636 80.347374 
L 277.409091 80.679404 
L 284.454545 66.96 
L 291.5 72.891914 
L 298.545455 69.961307 
L 305.590909 80.506539 
L 312.636364 73.734253 
L 319.681818 79.069518 
L 326.727273 76.893731 
L 333.772727 75.361657 
L 340.818182 91.563013 
L 347.863636 99.974453 
L 354.909091 101.490397 
L 361.954545 102.013461 
L 369 94.738698 
L 376.045455 93.951034 
L 383.090909 117.626393 
L 390.136364 111.894973 
L 397.181818 96.668882 
L 404.227273 102.410636 
L 411.272727 96.981957 
L 418.318182 104.388355 
L 425.363636 105.151733 
L 432.409091 100.634659 
L 439.454545 103.75014 
L 446.5 113.674051 
L 453.545455 108.152291 
L 460.590909 107.249577 
L 467.636364 103.280604 
L 474.681818 108.7569 
L 481.727273 108.240851 
L 488.772727 98.267509 
L 495.818182 111.115548 
L 502.863636 98.604905 
L 509.909091 103.665043 
L 516.954545 96.419561 
L 524 87.830262 
L 531.045455 83.914124 
L 538.090909 109.149325 
L 545.136364 89.693933 
L 552.181818 104.441127 
L 559.227273 101.230378 
L 566.272727 111.42682 
L 573.318182 100.526321 
L 580.363636 102.703941 
L 587.409091 98.828449 
L 594.454545 97.8608 
L 601.5 104.284398 
L 608.545455 97.132315 
L 615.590909 97.232016 
L 622.636364 94.800436 
" clip-path="url(#pb1fa998a87)" style="fill: none; stroke: #ff0000; stroke-width: 1.5; stroke-linecap: square"/>
    <defs>
     <path id="me95ab0da65" d="M 0 3 
C 0.795609 3 1.55874 2.683901 2.12132 2.12132 
C 2.683901 1.55874 3 0.795609 3 0 
C 3 -0.795609 2.683901 -1.55874 2.12132 -2.12132 
C 1.55874 -2.683901 0.795609 -3 0 -3 
C -0.795609 -3 -1.55874 -2.683901 -2.12132 -2.12132 
C -2.683901 -1.55874 -3 -0.795609 -3 0 
C -3 0.795609 -2.683901 1.55874 -2.12132 2.12132 
C -1.55874 2.683901 -0.795609 3 0 3 
z
" style="stroke: #ff0000"/>
    </defs>
    <g clip-path="url(#pb1fa998a87)">
     <use xlink:href="#me95ab0da65" x="115.363636" y="369.36" style="fill: #ff0000; stroke: #ff0000"/>
     <use xlink:href="#me95ab0da65" x="122.409091" y="168.887113" style="fill: #ff0000; stroke: #ff0000"/>
     <use xlink:href="#me95ab0da65" x="129.454545" y="227.063325" style="fill: #ff0000; stroke: #ff0000"/>
     <use xlink:href="#me95ab0da65" x="136.5" y="226.499578" style="fill: #ff0000; stroke: #ff0000"/>
     <use xlink:href="#me95ab0da65" x="143.545455" y="239.30597" style="fill: #ff0000; stroke: #ff0000"/>
     <use xlink:href="#me95ab0da65" x="150.590909" y="75.056138" style="fill: #ff0000; stroke: #ff0000"/>
     <use xlink:href="#me95ab0da65" x="157.636364" y="168.375876" style="fill: #ff0000; stroke: #ff0000"/>
     <use xlink:href="#me95ab0da65" x="164.681818" y="201.977017" style="fill: #ff0000; stroke: #ff0000"/>
     <use xlink:href="#me95ab0da65" x="171.727273" y="187.885453" style="fill: #ff0000; stroke: #ff0000"/>
     <use xlink:href="#me95ab0da65" x="178.772727" y="200.87005" style="fill: #ff0000; stroke: #ff0000"/>
     <use xlink:href="#me95ab0da65" x="185.818182" y="159.012149" style="fill: #ff0000; stroke: #ff0000"/>
     <use xlink:href="#me95ab0da65" x="192.863636" y="139.177513" style="fill: #ff0000; stroke: #ff0000"/>
     <use xlink:href="#me95ab0da65" x="199.909091" y="115.241836" style="fill: #ff0000; stroke: #ff0000"/>
     <use xlink:href="#me95ab0da65" x="206.954545" y="124.187841" style="fill: #ff0000; stroke: #ff0000"/>
     <use xlink:href="#me95ab0da65" x="214" y="125.166829" style="fill: #ff0000; stroke: #ff0000"/>
     <use xlink:href="#me95ab0da65" x="221.045455" y="147.517406" style="fill: #ff0000; stroke: #ff0000"/>
     <use xlink:href="#me95ab0da65" x="228.090909" y="140.665465" style="fill: #ff0000; stroke: #ff0000"/>
     <use xlink:href="#me95ab0da65" x="235.136364" y="79.156879" style="fill: #ff0000; stroke: #ff0000"/>
     <use xlink:href="#me95ab0da65" x="242.181818" y="108.808137" style="fill: #ff0000; stroke: #ff0000"/>
     <use xlink:href="#me95ab0da65" x="249.227273" y="131.085673" style="fill: #ff0000; stroke: #ff0000"/>
     <use xlink:href="#me95ab0da65" x="256.272727" y="108.271923" style="fill: #ff0000; stroke: #ff0000"/>
     <use xlink:href="#me95ab0da65" x="263.318182" y="90.774142" style="fill: #ff0000; stroke: #ff0000"/>
     <use xlink:href="#me95ab0da65" x="270.363636" y="80.347374" style="fill: #ff0000; stroke: #ff0000"/>
     <use xlink:href="#me95ab0da65" x="277.409091" y="80.679404" style="fill: #ff0000; stroke: #ff0000"/>
     <use xlink:href="#me95ab0da65" x="284.454545" y="66.96" style="fill: #ff0000; stroke: #ff0000"/>
     <use xlink:href="#me95ab0da65" x="291.5" y="72.891914" style="fill: #ff0000; stroke: #ff0000"/>
     <use xlink:href="#me95ab0da65" x="298.545455" y="69.961307" style="fill: #ff0000; stroke: #ff0000"/>
     <use xlink:href="#me95ab0da65" x="305.590909" y="80.506539" style="fill: #ff0000; stroke: #ff0000"/>
     <use xlink:href="#me95ab0da65" x="312.636364" y="73.734253" style="fill: #ff0000; stroke: #ff0000"/>
     <use xlink:href="#me95ab0da65" x="319.681818" y="79.069518" style="fill: #ff0000; stroke: #ff0000"/>
     <use xlink:href="#me95ab0da65" x="326.727273" y="76.893731" style="fill: #ff0000; stroke: #ff0000"/>
     <use xlink:href="#me95ab0da65" x="333.772727" y="75.361657" style="fill: #ff0000; stroke: #ff0000"/>
     <use xlink:href="#me95ab0da65" x="340.818182" y="91.563013" style="fill: #ff0000; stroke: #ff0000"/>
     <use xlink:href="#me95ab0da65" x="347.863636" y="99.974453" style="fill: #ff0000; stroke: #ff0000"/>
     <use xlink:href="#me95ab0da65" x="354.909091" y="101.490397" style="fill: #ff0000; stroke: #ff0000"/>
     <use xlink:href="#me95ab0da65" x="361.954545" y="102.013461" style="fill: #ff0000; stroke: #ff0000"/>
     <use xlink:href="#me95ab0da65" x="369" y="94.738698" style="fill: #ff0000; stroke: #ff0000"/>
     <use xlink:href="#me95ab0da65" x="376.045455" y="93.951034" style="fill: #ff0000; stroke: #ff0000"/>
     <use xlink:href="#me95ab0da65" x="383.090909" y="117.626393" style="fill: #ff0000; stroke: #ff0000"/>
     <use xlink:href="#me95ab0da65" x="390.136364" y="111.894973" style="fill: #ff0000; stroke: #ff0000"/>
     <use xlink:href="#me95ab0da65" x="397.181818" y="96.668882" style="fill: #ff0000; stroke: #ff0000"/>
     <use xlink:href="#me95ab0da65" x="404.227273" y="102.410636" style="fill: #ff0000; stroke: #ff0000"/>
     <use xlink:href="#me95ab0da65" x="411.272727" y="96.981957" style="fill: #ff0000; stroke: #ff0000"/>
     <use xlink:href="#me95ab0da65" x="418.318182" y="104.388355" style="fill: #ff0000; stroke: #ff0000"/>
     <use xlink:href="#me95ab0da65" x="425.363636" y="105.151733" style="fill: #ff0000; stroke: #ff0000"/>
     <use xlink:href="#me95ab0da65" x="432.409091" y="100.634659" style="fill: #ff0000; stroke: #ff0000"/>
     <use xlink:href="#me95ab0da65" x="439.454545" y="103.75014" style="fill: #ff0000; stroke: #ff0000"/>
     <use xlink:href="#me95ab0da65" x="446.5" y="113.674051" style="fill: #ff0000; stroke: #ff0000"/>
     <use xlink:href="#me95ab0da65" x="453.545455" y="108.152291" style="fill: #ff0000; stroke: #ff0000"/>
     <use xlink:href="#me95ab0da65" x="460.590909" y="107.249577" style="fill: #ff0000; stroke: #ff0000"/>
     <use xlink:href="#me95ab0da65" x="467.636364" y="103.280604" style="fill: #ff0000; stroke: #ff0000"/>
     <use xlink:href="#me95ab0da65" x="474.681818" y="108.7569" style="fill: #ff0000; stroke: #ff0000"/>
     <use xlink:href="#me95ab0da65" x="481.727273" y="108.240851" style="fill: #ff0000; stroke: #ff0000"/>
     <use xlink:href="#me95ab0da65" x="488.772727" y="98.267509" style="fill: #ff0000; stroke: #ff0000"/>
     <use xlink:href="#me95ab0da65" x="495.818182" y="111.115548" style="fill: #ff0000; stroke: #ff0000"/>
     <use xlink:href="#me95ab0da65" x="502.863636" y="98.604905" style="fill: #ff0000; stroke: #ff0000"/>
     <use xlink:href="#me95ab0da65" x="509.909091" y="103.665043" style="fill: #ff0000; stroke: #ff0000"/>
     <use xlink:href="#me95ab0da65" x="516.954545" y="96.419561" style="fill: #ff0000; stroke: #ff0000"/>
     <use xlink:href="#me95ab0da65" x="524" y="87.830262" style="fill: #ff0000; stroke: #ff0000"/>
     <use xlink:href="#me95ab0da65" x="531.045455" y="83.914124" style="fill: #ff0000; stroke: #ff0000"/>
     <use xlink:href="#me95ab0da65" x="538.090909" y="109.149325" style="fill: #ff0000; stroke: #ff0000"/>
     <use xlink:href="#me95ab0da65" x="545.136364" y="89.693933" style="fill: #ff0000; stroke: #ff0000"/>
     <use xlink:href="#me95ab0da65" x="552.181818" y="104.441127" style="fill: #ff0000; stroke: #ff0000"/>
     <use xlink:href="#me95ab0da65" x="559.227273" y="101.230378" style="fill: #ff0000; stroke: #ff0000"/>
     <use xlink:href="#me95ab0da65" x="566.272727" y="111.42682" style="fill: #ff0000; stroke: #ff0000"/>
     <use xlink:href="#me95ab0da65" x="573.318182" y="100.526321" style="fill: #ff0000; stroke: #ff0000"/>
     <use xlink:href="#me95ab0da65" x="580.363636" y="102.703941" style="fill: #ff0000; stroke: #ff0000"/>
     <use xlink:href="#me95ab0da65" x="587.409091" y="98.828449" style="fill: #ff0000; stroke: #ff0000"/>
     <use xlink:href="#me95ab0da65" x="594.454545" y="97.8608" style="fill: #ff0000; stroke: #ff0000"/>
     <use xlink:href="#me95ab0da65" x="601.5" y="104.284398" style="fill: #ff0000; stroke: #ff0000"/>
     <use xlink:href="#me95ab0da65" x="608.545455" y="97.132315" style="fill: #ff0000; stroke: #ff0000"/>
     <use xlink:href="#me95ab0da65" x="615.590909" y="97.232016" style="fill: #ff0000; stroke: #ff0000"/>
     <use xlink:href="#me95ab0da65" x="622.636364" y="94.800436" style="fill: #ff0000; stroke: #ff0000"/>
    </g>
   </g>
   <g id="line2d_32">
    <path d="M 115.363636 125.833929 
L 122.409091 123.002056 
L 129.454545 105.723594 
L 136.5 121.897866 
L 143.545455 115.269676 
L 150.590909 121.355193 
L 157.636364 145.73104 
L 164.681818 130.58425 
L 171.727273 140.972657 
L 178.772727 163.613487 
L 185.818182 145.316287 
L 192.863636 116.522288 
L 199.909091 121.593232 
L 206.954545 108.239004 
L 214 108.128417 
L 221.045455 103.961311 
L 228.090909 103.076263 
L 235.136364 111.310885 
L 242.181818 115.54528 
L 249.227273 121.524777 
L 256.272727 130.893304 
L 263.318182 134.534683 
L 270.363636 135.467025 
L 277.409091 128.971254 
L 284.454545 121.214766 
L 291.5 128.201796 
L 298.545455 116.766484 
L 305.590909 134.203028 
L 312.636364 121.084365 
L 319.681818 119.037504 
L 326.727273 121.900406 
L 333.772727 124.277316 
L 340.818182 116.131837 
L 347.863636 121.063495 
L 354.909091 124.383503 
L 361.954545 121.422466 
L 369 119.145537 
L 376.045455 127.501891 
L 383.090909 129.973055 
L 390.136364 125.579039 
L 397.181818 139.588639 
L 404.227273 139.321506 
L 411.272727 134.510037 
L 418.318182 145.542568 
L 425.363636 141.209289 
L 432.409091 136.284536 
L 439.454545 129.970077 
L 446.5 131.005057 
L 453.545455 143.333856 
L 460.590909 155.770673 
L 467.636364 145.883793 
L 474.681818 146.885918 
L 481.727273 160.22469 
L 488.772727 155.570232 
L 495.818182 148.198606 
L 502.863636 141.088393 
L 509.909091 146.400839 
L 516.954545 160.510441 
L 524 158.93367 
L 531.045455 154.571462 
L 538.090909 167.631503 
L 545.136364 136.281619 
L 552.181818 137.171662 
L 559.227273 135.235865 
L 566.272727 137.342872 
L 573.318182 149.220606 
L 580.363636 150.730989 
L 587.409091 145.883398 
L 594.454545 159.28987 
L 601.5 122.098653 
L 608.545455 130.857547 
L 615.590909 128.283572 
L 622.636364 132.173355 
" clip-path="url(#pb1fa998a87)" style="fill: none; stroke: #0000ff; stroke-width: 1.5; stroke-linecap: square"/>
    <defs>
     <path id="m6f906b003f" d="M 0 3 
C 0.795609 3 1.55874 2.683901 2.12132 2.12132 
C 2.683901 1.55874 3 0.795609 3 0 
C 3 -0.795609 2.683901 -1.55874 2.12132 -2.12132 
C 1.55874 -2.683901 0.795609 -3 0 -3 
C -0.795609 -3 -1.55874 -2.683901 -2.12132 -2.12132 
C -2.683901 -1.55874 -3 -0.795609 -3 0 
C -3 0.795609 -2.683901 1.55874 -2.12132 2.12132 
C -1.55874 2.683901 -0.795609 3 0 3 
z
" style="stroke: #0000ff"/>
    </defs>
    <g clip-path="url(#pb1fa998a87)">
     <use xlink:href="#m6f906b003f" x="115.363636" y="125.833929" style="fill: #0000ff; stroke: #0000ff"/>
     <use xlink:href="#m6f906b003f" x="122.409091" y="123.002056" style="fill: #0000ff; stroke: #0000ff"/>
     <use xlink:href="#m6f906b003f" x="129.454545" y="105.723594" style="fill: #0000ff; stroke: #0000ff"/>
     <use xlink:href="#m6f906b003f" x="136.5" y="121.897866" style="fill: #0000ff; stroke: #0000ff"/>
     <use xlink:href="#m6f906b003f" x="143.545455" y="115.269676" style="fill: #0000ff; stroke: #0000ff"/>
     <use xlink:href="#m6f906b003f" x="150.590909" y="121.355193" style="fill: #0000ff; stroke: #0000ff"/>
     <use xlink:href="#m6f906b003f" x="157.636364" y="145.73104" style="fill: #0000ff; stroke: #0000ff"/>
     <use xlink:href="#m6f906b003f" x="164.681818" y="130.58425" style="fill: #0000ff; stroke: #0000ff"/>
     <use xlink:href="#m6f906b003f" x="171.727273" y="140.972657" style="fill: #0000ff; stroke: #0000ff"/>
     <use xlink:href="#m6f906b003f" x="178.772727" y="163.613487" style="fill: #0000ff; stroke: #0000ff"/>
     <use xlink:href="#m6f906b003f" x="185.818182" y="145.316287" style="fill: #0000ff; stroke: #0000ff"/>
     <use xlink:href="#m6f906b003f" x="192.863636" y="116.522288" style="fill: #0000ff; stroke: #0000ff"/>
     <use xlink:href="#m6f906b003f" x="199.909091" y="121.593232" style="fill: #0000ff; stroke: #0000ff"/>
     <use xlink:href="#m6f906b003f" x="206.954545" y="108.239004" style="fill: #0000ff; stroke: #0000ff"/>
     <use xlink:href="#m6f906b003f" x="214" y="108.128417" style="fill: #0000ff; stroke: #0000ff"/>
     <use xlink:href="#m6f906b003f" x="221.045455" y="103.961311" style="fill: #0000ff; stroke: #0000ff"/>
     <use xlink:href="#m6f906b003f" x="228.090909" y="103.076263" style="fill: #0000ff; stroke: #0000ff"/>
     <use xlink:href="#m6f906b003f" x="235.136364" y="111.310885" style="fill: #0000ff; stroke: #0000ff"/>
     <use xlink:href="#m6f906b003f" x="242.181818" y="115.54528" style="fill: #0000ff; stroke: #0000ff"/>
     <use xlink:href="#m6f906b003f" x="249.227273" y="121.524777" style="fill: #0000ff; stroke: #0000ff"/>
     <use xlink:href="#m6f906b003f" x="256.272727" y="130.893304" style="fill: #0000ff; stroke: #0000ff"/>
     <use xlink:href="#m6f906b003f" x="263.318182" y="134.534683" style="fill: #0000ff; stroke: #0000ff"/>
     <use xlink:href="#m6f906b003f" x="270.363636" y="135.467025" style="fill: #0000ff; stroke: #0000ff"/>
     <use xlink:href="#m6f906b003f" x="277.409091" y="128.971254" style="fill: #0000ff; stroke: #0000ff"/>
     <use xlink:href="#m6f906b003f" x="284.454545" y="121.214766" style="fill: #0000ff; stroke: #0000ff"/>
     <use xlink:href="#m6f906b003f" x="291.5" y="128.201796" style="fill: #0000ff; stroke: #0000ff"/>
     <use xlink:href="#m6f906b003f" x="298.545455" y="116.766484" style="fill: #0000ff; stroke: #0000ff"/>
     <use xlink:href="#m6f906b003f" x="305.590909" y="134.203028" style="fill: #0000ff; stroke: #0000ff"/>
     <use xlink:href="#m6f906b003f" x="312.636364" y="121.084365" style="fill: #0000ff; stroke: #0000ff"/>
     <use xlink:href="#m6f906b003f" x="319.681818" y="119.037504" style="fill: #0000ff; stroke: #0000ff"/>
     <use xlink:href="#m6f906b003f" x="326.727273" y="121.900406" style="fill: #0000ff; stroke: #0000ff"/>
     <use xlink:href="#m6f906b003f" x="333.772727" y="124.277316" style="fill: #0000ff; stroke: #0000ff"/>
     <use xlink:href="#m6f906b003f" x="340.818182" y="116.131837" style="fill: #0000ff; stroke: #0000ff"/>
     <use xlink:href="#m6f906b003f" x="347.863636" y="121.063495" style="fill: #0000ff; stroke: #0000ff"/>
     <use xlink:href="#m6f906b003f" x="354.909091" y="124.383503" style="fill: #0000ff; stroke: #0000ff"/>
     <use xlink:href="#m6f906b003f" x="361.954545" y="121.422466" style="fill: #0000ff; stroke: #0000ff"/>
     <use xlink:href="#m6f906b003f" x="369" y="119.145537" style="fill: #0000ff; stroke: #0000ff"/>
     <use xlink:href="#m6f906b003f" x="376.045455" y="127.501891" style="fill: #0000ff; stroke: #0000ff"/>
     <use xlink:href="#m6f906b003f" x="383.090909" y="129.973055" style="fill: #0000ff; stroke: #0000ff"/>
     <use xlink:href="#m6f906b003f" x="390.136364" y="125.579039" style="fill: #0000ff; stroke: #0000ff"/>
     <use xlink:href="#m6f906b003f" x="397.181818" y="139.588639" style="fill: #0000ff; stroke: #0000ff"/>
     <use xlink:href="#m6f906b003f" x="404.227273" y="139.321506" style="fill: #0000ff; stroke: #0000ff"/>
     <use xlink:href="#m6f906b003f" x="411.272727" y="134.510037" style="fill: #0000ff; stroke: #0000ff"/>
     <use xlink:href="#m6f906b003f" x="418.318182" y="145.542568" style="fill: #0000ff; stroke: #0000ff"/>
     <use xlink:href="#m6f906b003f" x="425.363636" y="141.209289" style="fill: #0000ff; stroke: #0000ff"/>
     <use xlink:href="#m6f906b003f" x="432.409091" y="136.284536" style="fill: #0000ff; stroke: #0000ff"/>
     <use xlink:href="#m6f906b003f" x="439.454545" y="129.970077" style="fill: #0000ff; stroke: #0000ff"/>
     <use xlink:href="#m6f906b003f" x="446.5" y="131.005057" style="fill: #0000ff; stroke: #0000ff"/>
     <use xlink:href="#m6f906b003f" x="453.545455" y="143.333856" style="fill: #0000ff; stroke: #0000ff"/>
     <use xlink:href="#m6f906b003f" x="460.590909" y="155.770673" style="fill: #0000ff; stroke: #0000ff"/>
     <use xlink:href="#m6f906b003f" x="467.636364" y="145.883793" style="fill: #0000ff; stroke: #0000ff"/>
     <use xlink:href="#m6f906b003f" x="474.681818" y="146.885918" style="fill: #0000ff; stroke: #0000ff"/>
     <use xlink:href="#m6f906b003f" x="481.727273" y="160.22469" style="fill: #0000ff; stroke: #0000ff"/>
     <use xlink:href="#m6f906b003f" x="488.772727" y="155.570232" style="fill: #0000ff; stroke: #0000ff"/>
     <use xlink:href="#m6f906b003f" x="495.818182" y="148.198606" style="fill: #0000ff; stroke: #0000ff"/>
     <use xlink:href="#m6f906b003f" x="502.863636" y="141.088393" style="fill: #0000ff; stroke: #0000ff"/>
     <use xlink:href="#m6f906b003f" x="509.909091" y="146.400839" style="fill: #0000ff; stroke: #0000ff"/>
     <use xlink:href="#m6f906b003f" x="516.954545" y="160.510441" style="fill: #0000ff; stroke: #0000ff"/>
     <use xlink:href="#m6f906b003f" x="524" y="158.93367" style="fill: #0000ff; stroke: #0000ff"/>
     <use xlink:href="#m6f906b003f" x="531.045455" y="154.571462" style="fill: #0000ff; stroke: #0000ff"/>
     <use xlink:href="#m6f906b003f" x="538.090909" y="167.631503" style="fill: #0000ff; stroke: #0000ff"/>
     <use xlink:href="#m6f906b003f" x="545.136364" y="136.281619" style="fill: #0000ff; stroke: #0000ff"/>
     <use xlink:href="#m6f906b003f" x="552.181818" y="137.171662" style="fill: #0000ff; stroke: #0000ff"/>
     <use xlink:href="#m6f906b003f" x="559.227273" y="135.235865" style="fill: #0000ff; stroke: #0000ff"/>
     <use xlink:href="#m6f906b003f" x="566.272727" y="137.342872" style="fill: #0000ff; stroke: #0000ff"/>
     <use xlink:href="#m6f906b003f" x="573.318182" y="149.220606" style="fill: #0000ff; stroke: #0000ff"/>
     <use xlink:href="#m6f906b003f" x="580.363636" y="150.730989" style="fill: #0000ff; stroke: #0000ff"/>
     <use xlink:href="#m6f906b003f" x="587.409091" y="145.883398" style="fill: #0000ff; stroke: #0000ff"/>
     <use xlink:href="#m6f906b003f" x="594.454545" y="159.28987" style="fill: #0000ff; stroke: #0000ff"/>
     <use xlink:href="#m6f906b003f" x="601.5" y="122.098653" style="fill: #0000ff; stroke: #0000ff"/>
     <use xlink:href="#m6f906b003f" x="608.545455" y="130.857547" style="fill: #0000ff; stroke: #0000ff"/>
     <use xlink:href="#m6f906b003f" x="615.590909" y="128.283572" style="fill: #0000ff; stroke: #0000ff"/>
     <use xlink:href="#m6f906b003f" x="622.636364" y="132.173355" style="fill: #0000ff; stroke: #0000ff"/>
    </g>
   </g>
   <g id="patch_3">
    <path d="M 90 384.48 
L 90 51.84 
" style="fill: none; stroke: #000000; stroke-width: 0.8; stroke-linejoin: miter; stroke-linecap: square"/>
   </g>
   <g id="patch_4">
    <path d="M 648 384.48 
L 648 51.84 
" style="fill: none; stroke: #000000; stroke-width: 0.8; stroke-linejoin: miter; stroke-linecap: square"/>
   </g>
   <g id="patch_5">
    <path d="M 90 384.48 
L 648 384.48 
" style="fill: none; stroke: #000000; stroke-width: 0.8; stroke-linejoin: miter; stroke-linecap: square"/>
   </g>
   <g id="patch_6">
    <path d="M 90 51.84 
L 648 51.84 
" style="fill: none; stroke: #000000; stroke-width: 0.8; stroke-linejoin: miter; stroke-linecap: square"/>
   </g>
   <g id="text_18">
    <!-- Average Sentiment Over Time by Gender -->
    <g transform="translate(245.228437 45.84) scale(0.12 -0.12)">
     <defs>
      <path id="DejaVuSans-4f" d="M 2522 4238 
Q 1834 4238 1429 3725 
Q 1025 3213 1025 2328 
Q 1025 1447 1429 934 
Q 1834 422 2522 422 
Q 3209 422 3611 934 
Q 4013 1447 4013 2328 
Q 4013 3213 3611 3725 
Q 3209 4238 2522 4238 
z
M 2522 4750 
Q 3503 4750 4090 4092 
Q 4678 3434 4678 2328 
Q 4678 1225 4090 567 
Q 3503 -91 2522 -91 
Q 1538 -91 948 565 
Q 359 1222 359 2328 
Q 359 3434 948 4092 
Q 1538 4750 2522 4750 
z
" transform="scale(0.015625)"/>
      <path id="DejaVuSans-54" d="M -19 4666 
L 3928 4666 
L 3928 4134 
L 2272 4134 
L 2272 0 
L 1638 0 
L 1638 4134 
L -19 4134 
L -19 4666 
z
" transform="scale(0.015625)"/>
      <path id="DejaVuSans-62" d="M 3116 1747 
Q 3116 2381 2855 2742 
Q 2594 3103 2138 3103 
Q 1681 3103 1420 2742 
Q 1159 2381 1159 1747 
Q 1159 1113 1420 752 
Q 1681 391 2138 391 
Q 2594 391 2855 752 
Q 3116 1113 3116 1747 
z
M 1159 2969 
Q 1341 3281 1617 3432 
Q 1894 3584 2278 3584 
Q 2916 3584 3314 3078 
Q 3713 2572 3713 1747 
Q 3713 922 3314 415 
Q 2916 -91 2278 -91 
Q 1894 -91 1617 61 
Q 1341 213 1159 525 
L 1159 0 
L 581 0 
L 581 4863 
L 1159 4863 
L 1159 2969 
z
" transform="scale(0.015625)"/>
      <path id="DejaVuSans-79" d="M 2059 -325 
Q 1816 -950 1584 -1140 
Q 1353 -1331 966 -1331 
L 506 -1331 
L 506 -850 
L 844 -850 
Q 1081 -850 1212 -737 
Q 1344 -625 1503 -206 
L 1606 56 
L 191 3500 
L 800 3500 
L 1894 763 
L 2988 3500 
L 3597 3500 
L 2059 -325 
z
" transform="scale(0.015625)"/>
      <path id="DejaVuSans-47" d="M 3809 666 
L 3809 1919 
L 2778 1919 
L 2778 2438 
L 4434 2438 
L 4434 434 
Q 4069 175 3628 42 
Q 3188 -91 2688 -91 
Q 1594 -91 976 548 
Q 359 1188 359 2328 
Q 359 3472 976 4111 
Q 1594 4750 2688 4750 
Q 3144 4750 3555 4637 
Q 3966 4525 4313 4306 
L 4313 3634 
Q 3963 3931 3569 4081 
Q 3175 4231 2741 4231 
Q 1884 4231 1454 3753 
Q 1025 3275 1025 2328 
Q 1025 1384 1454 906 
Q 1884 428 2741 428 
Q 3075 428 3337 486 
Q 3600 544 3809 666 
z
" transform="scale(0.015625)"/>
      <path id="DejaVuSans-64" d="M 2906 2969 
L 2906 4863 
L 3481 4863 
L 3481 0 
L 2906 0 
L 2906 525 
Q 2725 213 2448 61 
Q 2172 -91 1784 -91 
Q 1150 -91 751 415 
Q 353 922 353 1747 
Q 353 2572 751 3078 
Q 1150 3584 1784 3584 
Q 2172 3584 2448 3432 
Q 2725 3281 2906 2969 
z
M 947 1747 
Q 947 1113 1208 752 
Q 1469 391 1925 391 
Q 2381 391 2643 752 
Q 2906 1113 2906 1747 
Q 2906 2381 2643 2742 
Q 2381 3103 1925 3103 
Q 1469 3103 1208 2742 
Q 947 2381 947 1747 
z
" transform="scale(0.015625)"/>
     </defs>
     <use xlink:href="#DejaVuSans-41"/>
     <use xlink:href="#DejaVuSans-76" x="62.533203"/>
     <use xlink:href="#DejaVuSans-65" x="121.712891"/>
     <use xlink:href="#DejaVuSans-72" x="183.236328"/>
     <use xlink:href="#DejaVuSans-61" x="224.349609"/>
     <use xlink:href="#DejaVuSans-67" x="285.628906"/>
     <use xlink:href="#DejaVuSans-65" x="349.105469"/>
     <use xlink:href="#DejaVuSans-20" x="410.628906"/>
     <use xlink:href="#DejaVuSans-53" x="442.416016"/>
     <use xlink:href="#DejaVuSans-65" x="505.892578"/>
     <use xlink:href="#DejaVuSans-6e" x="567.416016"/>
     <use xlink:href="#DejaVuSans-74" x="630.794922"/>
     <use xlink:href="#DejaVuSans-69" x="670.003906"/>
     <use xlink:href="#DejaVuSans-6d" x="697.787109"/>
     <use xlink:href="#DejaVuSans-65" x="795.199219"/>
     <use xlink:href="#DejaVuSans-6e" x="856.722656"/>
     <use xlink:href="#DejaVuSans-74" x="920.101562"/>
     <use xlink:href="#DejaVuSans-20" x="959.310547"/>
     <use xlink:href="#DejaVuSans-4f" x="991.097656"/>
     <use xlink:href="#DejaVuSans-76" x="1069.808594"/>
     <use xlink:href="#DejaVuSans-65" x="1128.988281"/>
     <use xlink:href="#DejaVuSans-72" x="1190.511719"/>
     <use xlink:href="#DejaVuSans-20" x="1231.625"/>
     <use xlink:href="#DejaVuSans-54" x="1263.412109"/>
     <use xlink:href="#DejaVuSans-69" x="1321.371094"/>
     <use xlink:href="#DejaVuSans-6d" x="1349.154297"/>
     <use xlink:href="#DejaVuSans-65" x="1446.566406"/>
     <use xlink:href="#DejaVuSans-20" x="1508.089844"/>
     <use xlink:href="#DejaVuSans-62" x="1539.876953"/>
     <use xlink:href="#DejaVuSans-79" x="1603.353516"/>
     <use xlink:href="#DejaVuSans-20" x="1662.533203"/>
     <use xlink:href="#DejaVuSans-47" x="1694.320312"/>
     <use xlink:href="#DejaVuSans-65" x="1771.810547"/>
     <use xlink:href="#DejaVuSans-6e" x="1833.333984"/>
     <use xlink:href="#DejaVuSans-64" x="1896.712891"/>
     <use xlink:href="#DejaVuSans-65" x="1960.189453"/>
     <use xlink:href="#DejaVuSans-72" x="2021.712891"/>
    </g>
   </g>
   <g id="legend_1">
    <g id="patch_7">
     <path d="M 572.845312 89.19625 
L 641 89.19625 
Q 643 89.19625 643 87.19625 
L 643 58.84 
Q 643 56.84 641 56.84 
L 572.845312 56.84 
Q 570.845312 56.84 570.845312 58.84 
L 570.845312 87.19625 
Q 570.845312 89.19625 572.845312 89.19625 
z
" style="fill: #ffffff; opacity: 0.8; stroke: #cccccc; stroke-linejoin: miter"/>
    </g>
    <g id="line2d_33">
     <path d="M 574.845312 64.938437 
L 584.845312 64.938437 
L 594.845312 64.938437 
" style="fill: none; stroke: #ff0000; stroke-width: 1.5; stroke-linecap: square"/>
     <g>
      <use xlink:href="#me95ab0da65" x="584.845312" y="64.938437" style="fill: #ff0000; stroke: #ff0000"/>
     </g>
    </g>
    <g id="text_19">
     <!-- Female -->
     <g transform="translate(602.845312 68.438437) scale(0.1 -0.1)">
      <defs>
       <path id="DejaVuSans-46" d="M 628 4666 
L 3309 4666 
L 3309 4134 
L 1259 4134 
L 1259 2759 
L 3109 2759 
L 3109 2228 
L 1259 2228 
L 1259 0 
L 628 0 
L 628 4666 
z
" transform="scale(0.015625)"/>
       <path id="DejaVuSans-6c" d="M 603 4863 
L 1178 4863 
L 1178 0 
L 603 0 
L 603 4863 
z
" transform="scale(0.015625)"/>
      </defs>
      <use xlink:href="#DejaVuSans-46"/>
      <use xlink:href="#DejaVuSans-65" x="52.019531"/>
      <use xlink:href="#DejaVuSans-6d" x="113.542969"/>
      <use xlink:href="#DejaVuSans-61" x="210.955078"/>
      <use xlink:href="#DejaVuSans-6c" x="272.234375"/>
      <use xlink:href="#DejaVuSans-65" x="300.017578"/>
     </g>
    </g>
    <g id="line2d_34">
     <path d="M 574.845312 79.616562 
L 584.845312 79.616562 
L 594.845312 79.616562 
" style="fill: none; stroke: #0000ff; stroke-width: 1.5; stroke-linecap: square"/>
     <g>
      <use xlink:href="#m6f906b003f" x="584.845312" y="79.616562" style="fill: #0000ff; stroke: #0000ff"/>
     </g>
    </g>
    <g id="text_20">
     <!-- Male -->
     <g transform="translate(602.845312 83.116562) scale(0.1 -0.1)">
      <defs>
       <path id="DejaVuSans-4d" d="M 628 4666 
L 1569 4666 
L 2759 1491 
L 3956 4666 
L 4897 4666 
L 4897 0 
L 4281 0 
L 4281 4097 
L 3078 897 
L 2444 897 
L 1241 4097 
L 1241 0 
L 628 0 
L 628 4666 
z
" transform="scale(0.015625)"/>
      </defs>
      <use xlink:href="#DejaVuSans-4d"/>
      <use xlink:href="#DejaVuSans-61" x="86.279297"/>
      <use xlink:href="#DejaVuSans-6c" x="147.558594"/>
      <use xlink:href="#DejaVuSans-65" x="175.341797"/>
     </g>
    </g>
   </g>
  </g>
 </g>
 <defs>
  <clipPath id="pb1fa998a87">
   <rect x="90" y="51.84" width="558" height="332.64"/>
  </clipPath>
 </defs>
</svg>
